<svg width="45" height="37" viewBox="0 0 45 37" fill="none" xmlns="http://www.w3.org/2000/svg">
<path d="M42.451 18.9446C43.3832 18.9446 44.1418 18.1864 44.1418 17.2542V14.421C44.1418 13.4901 43.3832 12.7329 42.451 12.7329H39.437V7.81735C39.4377 7.54889 39.4384 7.27093 39.2099 6.89741L35.5571 0.853827C35.304 0.434967 34.6143 0.434967 34.3612 0.853827L30.708 6.89804C30.4801 7.27631 30.4805 7.55602 30.4808 7.86367V12.7328H26.9631V7.81763C26.9638 7.54848 26.9645 7.27052 26.7356 6.89734L23.0828 0.853757C22.8297 0.434897 22.14 0.434897 21.8869 0.853757L18.2369 6.89322C18.0056 7.27045 18.0063 7.54848 18.007 7.86367V12.7328H14.4893V7.81763C14.4899 7.54848 14.4906 7.27052 14.2617 6.89734L10.6089 0.853757C10.3558 0.434897 9.66613 0.434897 9.41304 0.853757L5.76226 6.89392C5.53166 7.27086 5.53236 7.54882 5.53306 7.86367V12.7328H2.51909C1.58825 12.7328 0.830658 13.4901 0.830658 14.4209V17.2541C0.830658 18.1863 1.58825 18.9445 2.51909 18.9445H5.53306V23.9427H2.51909C1.58825 23.9427 0.830658 24.6999 0.830658 25.6307V28.4636C0.830658 29.3958 1.58825 30.1544 2.51909 30.1544H5.53306V34.9853C5.53306 35.5959 6.0287 36.0928 6.63785 36.0928H13.384C13.9936 36.0928 14.4892 35.5959 14.4892 34.9853V30.1544H18.0069V34.9853C18.0069 35.5959 18.5038 36.0928 19.1144 36.0928H25.8579C26.4674 36.0928 26.963 35.5959 26.963 34.9853V30.1544H30.4807V34.9853C30.4807 35.5959 30.9777 36.0928 31.5882 36.0928H38.332C38.9413 36.0928 39.4368 35.5959 39.4368 34.9853V30.1544H42.4508C43.383 30.1544 44.1416 29.3958 44.1416 28.4636V25.6307C44.1416 24.6999 43.383 23.9427 42.4508 23.9427H39.4368V18.9445H42.451V18.9446ZM42.451 14.13C42.6103 14.13 42.7447 14.2634 42.7447 14.421V17.2542C42.7447 17.4131 42.6103 17.5475 42.451 17.5475H39.437V14.13H42.451ZM26.9631 18.9446H30.4808V23.9427H26.9631V18.9446ZM30.4808 14.13V17.5475H26.9631V14.13H30.4808ZM14.4892 18.9446H18.0069V23.9427H14.4892V18.9446ZM18.007 14.13V17.5475H14.4893V14.13H18.007ZM2.51909 17.5475C2.36115 17.5475 2.22779 17.4131 2.22779 17.2542V14.421C2.22779 14.2607 2.35842 14.13 2.51909 14.13H5.53306V17.5475H2.51909ZM2.51909 28.7573C2.36115 28.7573 2.22779 28.6229 2.22779 28.4636V25.6308C2.22779 25.4705 2.35842 25.3399 2.51909 25.3399H5.53306V28.7573H2.51909ZM13.092 34.6958H6.93013V7.81393C6.92985 7.7519 6.92538 7.70377 6.95611 7.61987L10.0109 2.56546L13.0887 7.65801C13.0969 7.70405 13.0925 7.75218 13.0921 7.86367V34.6958H13.092ZM14.4892 28.7573V25.3399H18.0069V28.7573H14.4892ZM25.566 34.6958H19.4041V7.81428C19.4037 7.75218 19.3993 7.70412 19.4304 7.61987L22.4849 2.56546L25.5627 7.65801C25.5708 7.70405 25.5664 7.75218 25.5661 7.86367V34.6958H25.566ZM26.9631 28.7573V25.3399H30.4808V28.7573H26.9631ZM38.0399 34.6958H31.878V7.82518C31.878 7.75867 31.8725 7.70852 31.9042 7.61987L34.9591 2.56546L38.0365 7.65773C38.0447 7.70377 38.0402 7.7519 38.0399 7.86374V34.6958ZM42.451 25.3399C42.6103 25.3399 42.7447 25.4732 42.7447 25.6308V28.4636C42.7447 28.6229 42.6103 28.7573 42.451 28.7573H39.437V25.3399H42.451Z" fill="#327466"/>
<path d="M23.3559 15.1401H21.6153C21.2296 15.1401 20.9167 15.4529 20.9167 15.8387C20.9167 16.2244 21.2296 16.5372 21.6153 16.5372H23.3559C23.7417 16.5372 24.0545 16.2244 24.0545 15.8387C24.0545 15.4529 23.7418 15.1401 23.3559 15.1401Z" fill="#17B997"/>
<path d="M10.7907 15.1401H9.05043C8.66469 15.1401 8.35187 15.4529 8.35187 15.8387C8.35187 16.2244 8.66469 16.5372 9.05043 16.5372H10.7907C11.1765 16.5372 11.4893 16.2244 11.4893 15.8387C11.4893 15.4529 11.1765 15.1401 10.7907 15.1401Z" fill="#17B997"/>
<path d="M35.7864 15.1401H34.0485C33.6628 15.1401 33.35 15.4529 33.35 15.8387C33.35 16.2244 33.6628 16.5372 34.0485 16.5372H35.7864C36.1722 16.5372 36.485 16.2244 36.485 15.8387C36.485 15.4529 36.1722 15.1401 35.7864 15.1401Z" fill="#17B997"/>
<path d="M23.3559 26.9474H21.6153C21.2296 26.9474 20.9167 27.2603 20.9167 27.646C20.9167 28.0318 21.2296 28.3446 21.6153 28.3446H23.3559C23.7417 28.3446 24.0545 28.0318 24.0545 27.646C24.0545 27.2603 23.7418 26.9474 23.3559 26.9474Z" fill="#17B997"/>
<path d="M10.7907 26.9474H9.05043C8.66469 26.9474 8.35187 27.2603 8.35187 27.646C8.35187 28.0318 8.66469 28.3446 9.05043 28.3446H10.7907C11.1765 28.3446 11.4893 28.0318 11.4893 27.646C11.4893 27.2603 11.1765 26.9474 10.7907 26.9474Z" fill="#17B997"/>
<path d="M35.7864 26.9474H34.0485C33.6628 26.9474 33.35 27.2603 33.35 27.646C33.35 28.0318 33.6628 28.3446 34.0485 28.3446H35.7864C36.1722 28.3446 36.485 28.0318 36.485 27.646C36.485 27.2603 36.1722 26.9474 35.7864 26.9474Z" fill="#17B997"/>
</svg>
