<svg width="28" height="28" viewBox="0 0 28 28" fill="none" xmlns="http://www.w3.org/2000/svg">
<circle cx="14.468" cy="14.0006" r="13.5021" fill="white"/>
<mask id="path-2-outside-1_1_125" maskUnits="userSpaceOnUse" x="5.96713" y="6.24911" width="17" height="15" fill="black">
<rect fill="white" x="5.96713" y="6.24911" width="17" height="15"/>
<path d="M21.8103 15.1665H20.9029C20.5105 15.1665 20.1785 15.4177 20.0513 15.7667L18.5391 15.456C18.4628 15.4064 18.3911 15.3594 18.3226 15.3143C18.3364 14.9575 18.228 14.6114 18.0092 14.3253C17.7772 14.0217 17.441 13.8092 17.0474 13.7132C17.0268 13.381 16.8705 13.0619 16.6053 12.8272C16.3138 12.5672 15.915 12.4312 15.5188 12.4439C15.1144 12.0307 14.5598 11.7746 13.9552 11.7183V10.5408L14.4455 10.0504C14.4774 10.0215 15.9915 8.68867 17.9022 9.4332C17.9059 9.4347 17.9096 9.43592 17.9133 9.43716C18.1066 9.50291 18.2304 9.41186 18.2744 9.37016C18.4131 9.2384 18.4267 9.02056 18.32 8.64143C18.1364 7.99434 17.3705 7.14033 16.2373 7.26066C14.7853 7.41895 14.4211 8.56897 14.1549 9.40886C14.1201 9.51877 14.0857 9.62428 14.0503 9.72706L13.701 10.0763L13.3517 9.72701C13.3167 9.62482 13.2825 9.51991 13.248 9.41061C12.982 8.57024 12.618 7.41897 11.1655 7.26068C10.0339 7.13959 9.26547 7.99437 9.08261 8.6422C8.97618 9.02059 8.98982 9.23843 9.12852 9.37016C9.17245 9.41186 9.296 9.50291 9.48953 9.43716C9.49324 9.43592 9.49698 9.43467 9.50068 9.4332C11.4048 8.691 12.8831 9.9843 12.9565 10.0504L13.447 10.5408V11.7183C12.8426 11.7746 12.2885 12.0307 11.8841 12.4438C11.4802 12.4322 11.0889 12.5674 10.7973 12.8264C10.5314 13.0619 10.3748 13.3825 10.3549 13.7162C9.89 13.8411 9.45582 14.1708 9.28269 14.6574L8.6561 14.2479C8.1177 13.9154 7.48051 14.1616 7.1756 14.5925C6.87712 15.0146 6.80666 15.7309 7.5984 16.3673L10.6294 18.6016C11.3881 19.1259 12.1099 19.2219 13.2577 19.2219C13.2577 19.2219 17.4136 19.2204 17.537 19.2189C18.312 19.2087 18.9898 19.206 20.0101 19.5819C20.0874 20.0051 20.4573 20.3275 20.9029 20.3275H21.6119C21.6317 20.3329 21.6511 20.3407 21.6713 20.3407C21.6981 20.3407 21.7248 20.3358 21.7508 20.3275H21.8103C22.3117 20.3275 22.7196 19.9199 22.7196 19.4189V16.0758C22.7196 15.5744 22.3117 15.1665 21.8103 15.1665ZM16.2924 7.76588C16.3472 7.75993 16.4009 7.75694 16.4529 7.75694C17.2628 7.75694 17.7355 8.44298 17.831 8.77968C17.8414 8.81639 17.8496 8.84914 17.8563 8.87792C16.5316 8.45167 15.4118 8.85585 14.7479 9.22826C14.9888 8.52215 15.3215 7.8716 16.2924 7.76588ZM10.6932 8.69535C10.3349 8.69535 9.95006 8.74794 9.54662 8.87798C9.55333 8.84919 9.56151 8.81669 9.57167 8.77998C9.67315 8.42121 10.1987 7.66768 11.1105 7.76593C12.0809 7.87162 12.4138 8.5222 12.6545 9.22857C12.1933 8.96952 11.5112 8.69535 10.6932 8.69535ZM10.6473 14.1755C10.715 14.1673 10.7763 14.1321 10.818 14.078C10.8594 14.0239 10.8773 13.9552 10.8679 13.8877C10.8321 13.6366 10.9294 13.3885 11.1346 13.2066C11.3507 13.0145 11.6519 12.923 11.9598 12.9585C12.0419 12.9674 12.1243 12.9359 12.1792 12.8731C12.5454 12.4545 13.1002 12.2144 13.7011 12.2144C14.3025 12.2144 14.8576 12.4545 15.2238 12.8731C15.2786 12.9359 15.3608 12.9674 15.4431 12.9585C15.7508 12.9227 16.052 13.0145 16.2679 13.2068C16.4733 13.3889 16.5706 13.6371 16.5343 13.8871C16.5247 13.9546 16.5425 14.0234 16.5842 14.0777C16.6257 14.132 16.6872 14.1673 16.7549 14.1755C17.111 14.2191 17.4129 14.3819 17.6055 14.634C17.6836 14.7361 17.7382 14.8505 17.7731 14.9706C17.308 14.7107 16.8383 14.5707 15.8888 14.5707H14.1609C13.3714 14.5707 12.9456 15.1898 12.9456 15.7721C12.9456 16.0048 13.0099 16.2247 13.1297 16.408C12.0817 16.4023 11.9358 16.371 11.6566 16.2085L9.72843 14.9486C9.81441 14.5056 10.236 14.226 10.6473 14.1755ZM17.531 18.7108C17.4097 18.7123 13.2577 18.7138 13.2577 18.7138C12.1925 18.7138 11.5708 18.6344 10.9247 18.1883L7.90857 15.9649C7.47685 15.618 7.358 15.2146 7.59047 14.8861C7.75994 14.6469 8.10456 14.5037 8.38346 14.6767L11.3896 16.6405C11.8645 16.9179 12.0893 16.9179 13.9035 16.9172H15.0992C15.2396 16.9172 15.3533 16.8035 15.3533 16.6631C15.3533 16.5227 15.2396 16.409 15.0992 16.409H14.1608C13.9298 16.409 13.7425 16.3406 13.6192 16.211C13.5125 16.0991 13.4537 15.9431 13.4537 15.7721C13.4537 15.4381 13.675 15.0789 14.1608 15.0789H15.8887C16.7319 15.0789 17.1251 15.1891 17.544 15.4249C17.6971 15.5111 18.2086 15.8476 18.3039 15.9088C18.3302 15.9257 18.3595 15.9379 18.3902 15.9441L19.9936 16.2736V19.0367C18.9875 18.6969 18.2761 18.7026 17.531 18.7108ZM22.2115 19.4189C22.2115 19.6398 22.0316 19.8194 21.8103 19.8194H21.6508C21.6506 19.8194 21.6505 19.8194 21.6504 19.8194H20.9029C20.6816 19.8194 20.5017 19.6398 20.5017 19.4189V16.0758C20.5017 15.8545 20.6816 15.6746 20.9029 15.6746H21.8103C22.0316 15.6746 22.2115 15.8545 22.2115 16.0758V19.4189Z"/>
</mask>
<path d="M21.8103 15.1665H20.9029C20.5105 15.1665 20.1785 15.4177 20.0513 15.7667L18.5391 15.456C18.4628 15.4064 18.3911 15.3594 18.3226 15.3143C18.3364 14.9575 18.228 14.6114 18.0092 14.3253C17.7772 14.0217 17.441 13.8092 17.0474 13.7132C17.0268 13.381 16.8705 13.0619 16.6053 12.8272C16.3138 12.5672 15.915 12.4312 15.5188 12.4439C15.1144 12.0307 14.5598 11.7746 13.9552 11.7183V10.5408L14.4455 10.0504C14.4774 10.0215 15.9915 8.68867 17.9022 9.4332C17.9059 9.4347 17.9096 9.43592 17.9133 9.43716C18.1066 9.50291 18.2304 9.41186 18.2744 9.37016C18.4131 9.2384 18.4267 9.02056 18.32 8.64143C18.1364 7.99434 17.3705 7.14033 16.2373 7.26066C14.7853 7.41895 14.4211 8.56897 14.1549 9.40886C14.1201 9.51877 14.0857 9.62428 14.0503 9.72706L13.701 10.0763L13.3517 9.72701C13.3167 9.62482 13.2825 9.51991 13.248 9.41061C12.982 8.57024 12.618 7.41897 11.1655 7.26068C10.0339 7.13959 9.26547 7.99437 9.08261 8.6422C8.97618 9.02059 8.98982 9.23843 9.12852 9.37016C9.17245 9.41186 9.296 9.50291 9.48953 9.43716C9.49324 9.43592 9.49698 9.43467 9.50068 9.4332C11.4048 8.691 12.8831 9.9843 12.9565 10.0504L13.447 10.5408V11.7183C12.8426 11.7746 12.2885 12.0307 11.8841 12.4438C11.4802 12.4322 11.0889 12.5674 10.7973 12.8264C10.5314 13.0619 10.3748 13.3825 10.3549 13.7162C9.89 13.8411 9.45582 14.1708 9.28269 14.6574L8.6561 14.2479C8.1177 13.9154 7.48051 14.1616 7.1756 14.5925C6.87712 15.0146 6.80666 15.7309 7.5984 16.3673L10.6294 18.6016C11.3881 19.1259 12.1099 19.2219 13.2577 19.2219C13.2577 19.2219 17.4136 19.2204 17.537 19.2189C18.312 19.2087 18.9898 19.206 20.0101 19.5819C20.0874 20.0051 20.4573 20.3275 20.9029 20.3275H21.6119C21.6317 20.3329 21.6511 20.3407 21.6713 20.3407C21.6981 20.3407 21.7248 20.3358 21.7508 20.3275H21.8103C22.3117 20.3275 22.7196 19.9199 22.7196 19.4189V16.0758C22.7196 15.5744 22.3117 15.1665 21.8103 15.1665ZM16.2924 7.76588C16.3472 7.75993 16.4009 7.75694 16.4529 7.75694C17.2628 7.75694 17.7355 8.44298 17.831 8.77968C17.8414 8.81639 17.8496 8.84914 17.8563 8.87792C16.5316 8.45167 15.4118 8.85585 14.7479 9.22826C14.9888 8.52215 15.3215 7.8716 16.2924 7.76588ZM10.6932 8.69535C10.3349 8.69535 9.95006 8.74794 9.54662 8.87798C9.55333 8.84919 9.56151 8.81669 9.57167 8.77998C9.67315 8.42121 10.1987 7.66768 11.1105 7.76593C12.0809 7.87162 12.4138 8.5222 12.6545 9.22857C12.1933 8.96952 11.5112 8.69535 10.6932 8.69535ZM10.6473 14.1755C10.715 14.1673 10.7763 14.1321 10.818 14.078C10.8594 14.0239 10.8773 13.9552 10.8679 13.8877C10.8321 13.6366 10.9294 13.3885 11.1346 13.2066C11.3507 13.0145 11.6519 12.923 11.9598 12.9585C12.0419 12.9674 12.1243 12.9359 12.1792 12.8731C12.5454 12.4545 13.1002 12.2144 13.7011 12.2144C14.3025 12.2144 14.8576 12.4545 15.2238 12.8731C15.2786 12.9359 15.3608 12.9674 15.4431 12.9585C15.7508 12.9227 16.052 13.0145 16.2679 13.2068C16.4733 13.3889 16.5706 13.6371 16.5343 13.8871C16.5247 13.9546 16.5425 14.0234 16.5842 14.0777C16.6257 14.132 16.6872 14.1673 16.7549 14.1755C17.111 14.2191 17.4129 14.3819 17.6055 14.634C17.6836 14.7361 17.7382 14.8505 17.7731 14.9706C17.308 14.7107 16.8383 14.5707 15.8888 14.5707H14.1609C13.3714 14.5707 12.9456 15.1898 12.9456 15.7721C12.9456 16.0048 13.0099 16.2247 13.1297 16.408C12.0817 16.4023 11.9358 16.371 11.6566 16.2085L9.72843 14.9486C9.81441 14.5056 10.236 14.226 10.6473 14.1755ZM17.531 18.7108C17.4097 18.7123 13.2577 18.7138 13.2577 18.7138C12.1925 18.7138 11.5708 18.6344 10.9247 18.1883L7.90857 15.9649C7.47685 15.618 7.358 15.2146 7.59047 14.8861C7.75994 14.6469 8.10456 14.5037 8.38346 14.6767L11.3896 16.6405C11.8645 16.9179 12.0893 16.9179 13.9035 16.9172H15.0992C15.2396 16.9172 15.3533 16.8035 15.3533 16.6631C15.3533 16.5227 15.2396 16.409 15.0992 16.409H14.1608C13.9298 16.409 13.7425 16.3406 13.6192 16.211C13.5125 16.0991 13.4537 15.9431 13.4537 15.7721C13.4537 15.4381 13.675 15.0789 14.1608 15.0789H15.8887C16.7319 15.0789 17.1251 15.1891 17.544 15.4249C17.6971 15.5111 18.2086 15.8476 18.3039 15.9088C18.3302 15.9257 18.3595 15.9379 18.3902 15.9441L19.9936 16.2736V19.0367C18.9875 18.6969 18.2761 18.7026 17.531 18.7108ZM22.2115 19.4189C22.2115 19.6398 22.0316 19.8194 21.8103 19.8194H21.6508C21.6506 19.8194 21.6505 19.8194 21.6504 19.8194H20.9029C20.6816 19.8194 20.5017 19.6398 20.5017 19.4189V16.0758C20.5017 15.8545 20.6816 15.6746 20.9029 15.6746H21.8103C22.0316 15.6746 22.2115 15.8545 22.2115 16.0758V19.4189Z" fill="#17B997"/>
<path d="M21.8103 15.1665H20.9029C20.5105 15.1665 20.1785 15.4177 20.0513 15.7667L18.5391 15.456C18.4628 15.4064 18.3911 15.3594 18.3226 15.3143C18.3364 14.9575 18.228 14.6114 18.0092 14.3253C17.7772 14.0217 17.441 13.8092 17.0474 13.7132C17.0268 13.381 16.8705 13.0619 16.6053 12.8272C16.3138 12.5672 15.915 12.4312 15.5188 12.4439C15.1144 12.0307 14.5598 11.7746 13.9552 11.7183V10.5408L14.4455 10.0504C14.4774 10.0215 15.9915 8.68867 17.9022 9.4332C17.9059 9.4347 17.9096 9.43592 17.9133 9.43716C18.1066 9.50291 18.2304 9.41186 18.2744 9.37016C18.4131 9.2384 18.4267 9.02056 18.32 8.64143C18.1364 7.99434 17.3705 7.14033 16.2373 7.26066C14.7853 7.41895 14.4211 8.56897 14.1549 9.40886C14.1201 9.51877 14.0857 9.62428 14.0503 9.72706L13.701 10.0763L13.3517 9.72701C13.3167 9.62482 13.2825 9.51991 13.248 9.41061C12.982 8.57024 12.618 7.41897 11.1655 7.26068C10.0339 7.13959 9.26547 7.99437 9.08261 8.6422C8.97618 9.02059 8.98982 9.23843 9.12852 9.37016C9.17245 9.41186 9.296 9.50291 9.48953 9.43716C9.49324 9.43592 9.49698 9.43467 9.50068 9.4332C11.4048 8.691 12.8831 9.9843 12.9565 10.0504L13.447 10.5408V11.7183C12.8426 11.7746 12.2885 12.0307 11.8841 12.4438C11.4802 12.4322 11.0889 12.5674 10.7973 12.8264C10.5314 13.0619 10.3748 13.3825 10.3549 13.7162C9.89 13.8411 9.45582 14.1708 9.28269 14.6574L8.6561 14.2479C8.1177 13.9154 7.48051 14.1616 7.1756 14.5925C6.87712 15.0146 6.80666 15.7309 7.5984 16.3673L10.6294 18.6016C11.3881 19.1259 12.1099 19.2219 13.2577 19.2219C13.2577 19.2219 17.4136 19.2204 17.537 19.2189C18.312 19.2087 18.9898 19.206 20.0101 19.5819C20.0874 20.0051 20.4573 20.3275 20.9029 20.3275H21.6119C21.6317 20.3329 21.6511 20.3407 21.6713 20.3407C21.6981 20.3407 21.7248 20.3358 21.7508 20.3275H21.8103C22.3117 20.3275 22.7196 19.9199 22.7196 19.4189V16.0758C22.7196 15.5744 22.3117 15.1665 21.8103 15.1665ZM16.2924 7.76588C16.3472 7.75993 16.4009 7.75694 16.4529 7.75694C17.2628 7.75694 17.7355 8.44298 17.831 8.77968C17.8414 8.81639 17.8496 8.84914 17.8563 8.87792C16.5316 8.45167 15.4118 8.85585 14.7479 9.22826C14.9888 8.52215 15.3215 7.8716 16.2924 7.76588ZM10.6932 8.69535C10.3349 8.69535 9.95006 8.74794 9.54662 8.87798C9.55333 8.84919 9.56151 8.81669 9.57167 8.77998C9.67315 8.42121 10.1987 7.66768 11.1105 7.76593C12.0809 7.87162 12.4138 8.5222 12.6545 9.22857C12.1933 8.96952 11.5112 8.69535 10.6932 8.69535ZM10.6473 14.1755C10.715 14.1673 10.7763 14.1321 10.818 14.078C10.8594 14.0239 10.8773 13.9552 10.8679 13.8877C10.8321 13.6366 10.9294 13.3885 11.1346 13.2066C11.3507 13.0145 11.6519 12.923 11.9598 12.9585C12.0419 12.9674 12.1243 12.9359 12.1792 12.8731C12.5454 12.4545 13.1002 12.2144 13.7011 12.2144C14.3025 12.2144 14.8576 12.4545 15.2238 12.8731C15.2786 12.9359 15.3608 12.9674 15.4431 12.9585C15.7508 12.9227 16.052 13.0145 16.2679 13.2068C16.4733 13.3889 16.5706 13.6371 16.5343 13.8871C16.5247 13.9546 16.5425 14.0234 16.5842 14.0777C16.6257 14.132 16.6872 14.1673 16.7549 14.1755C17.111 14.2191 17.4129 14.3819 17.6055 14.634C17.6836 14.7361 17.7382 14.8505 17.7731 14.9706C17.308 14.7107 16.8383 14.5707 15.8888 14.5707H14.1609C13.3714 14.5707 12.9456 15.1898 12.9456 15.7721C12.9456 16.0048 13.0099 16.2247 13.1297 16.408C12.0817 16.4023 11.9358 16.371 11.6566 16.2085L9.72843 14.9486C9.81441 14.5056 10.236 14.226 10.6473 14.1755ZM17.531 18.7108C17.4097 18.7123 13.2577 18.7138 13.2577 18.7138C12.1925 18.7138 11.5708 18.6344 10.9247 18.1883L7.90857 15.9649C7.47685 15.618 7.358 15.2146 7.59047 14.8861C7.75994 14.6469 8.10456 14.5037 8.38346 14.6767L11.3896 16.6405C11.8645 16.9179 12.0893 16.9179 13.9035 16.9172H15.0992C15.2396 16.9172 15.3533 16.8035 15.3533 16.6631C15.3533 16.5227 15.2396 16.409 15.0992 16.409H14.1608C13.9298 16.409 13.7425 16.3406 13.6192 16.211C13.5125 16.0991 13.4537 15.9431 13.4537 15.7721C13.4537 15.4381 13.675 15.0789 14.1608 15.0789H15.8887C16.7319 15.0789 17.1251 15.1891 17.544 15.4249C17.6971 15.5111 18.2086 15.8476 18.3039 15.9088C18.3302 15.9257 18.3595 15.9379 18.3902 15.9441L19.9936 16.2736V19.0367C18.9875 18.6969 18.2761 18.7026 17.531 18.7108ZM22.2115 19.4189C22.2115 19.6398 22.0316 19.8194 21.8103 19.8194H21.6508C21.6506 19.8194 21.6505 19.8194 21.6504 19.8194H20.9029C20.6816 19.8194 20.5017 19.6398 20.5017 19.4189V16.0758C20.5017 15.8545 20.6816 15.6746 20.9029 15.6746H21.8103C22.0316 15.6746 22.2115 15.8545 22.2115 16.0758V19.4189Z" stroke="#17B997" stroke-width="0.360057" mask="url(#path-2-outside-1_1_125)"/>
</svg>
