<svg width="37" height="44" viewBox="0 0 37 44" fill="none" xmlns="http://www.w3.org/2000/svg">
<path d="M35.7019 16.2062C32.1939 14.8256 28.6714 14.6098 25.6778 15.5315L20.8779 10.6708C21.0632 10.315 21.178 9.91686 21.178 9.48864C21.178 8.31092 20.3795 7.32602 19.2986 7.01927V4.70269C19.2986 4.33168 18.9531 3.98491 18.5775 4.00447C18.1887 4.00719 17.819 3.83632 17.5891 3.52351C17.2049 2.99651 17.3188 2.25561 17.8442 1.87153C18.0993 1.68495 18.4138 1.60957 18.7235 1.65666C19.0353 1.70472 19.3102 1.87188 19.4971 2.127C19.7243 2.43912 20.1609 2.50667 20.4734 2.27845C20.7844 2.05058 20.852 1.61334 20.6241 1.3022C20.2176 0.745514 19.6179 0.381212 18.9371 0.275868C18.257 0.170803 17.5747 0.336923 17.0194 0.744187C15.8734 1.58191 15.623 3.19804 16.4614 4.34788C16.8183 4.83534 17.3307 5.17129 17.9015 5.31764V7.01913C16.8199 7.32581 16.0206 8.31079 16.0206 9.48857C16.0206 9.91749 16.1358 10.3161 16.3218 10.6723L11.521 15.5314C8.52773 14.6093 5.00521 14.8246 1.49665 16.2065C0.332841 16.6649 0.18684 17.2635 0.268712 17.6851C0.362879 18.1674 0.817856 18.5014 1.37524 18.5014C1.4196 18.5 1.47556 18.5007 1.52669 18.5007C3.69972 18.5007 6.13318 18.934 8.02246 19.7656C5.60765 19.4686 3.28233 20.1039 2.15366 20.7291C1.76819 20.9413 1.12425 21.2964 1.22861 21.9479C1.33026 22.5799 2.0247 22.7102 2.32285 22.7662C6.06542 23.4607 8.35491 25.2883 9.00562 28.0675H4.86473C3.72138 28.0675 2.79152 28.9974 2.79152 30.1407V31.2043C2.79152 32.3476 3.72138 33.2775 4.86473 33.2775H5.01108L8.03629 41.0163C8.75253 42.8445 9.71376 43.5567 11.4649 43.5567H25.7357C27.4863 43.5567 28.4468 42.8445 29.1617 41.0162L32.1889 33.2774H32.4792C33.6226 33.2774 34.5524 32.3476 34.5524 31.2042V30.1407C34.5524 28.9973 33.6226 28.0674 32.4792 28.0674H28.1929C28.8455 25.2874 31.1362 23.46 34.8798 22.7661C35.1759 22.7101 35.8697 22.5792 35.9707 21.9471C36.075 21.2956 35.4065 20.9269 35.0483 20.7293C33.9179 20.1043 31.5926 19.4678 29.1771 19.7654C31.0662 18.9339 33.4986 18.5006 35.6699 18.5006C35.721 18.5006 35.7769 18.5017 35.8213 18.5013C36.3814 18.5013 36.8371 18.1671 36.9313 17.6848C37.0131 17.2632 36.8664 16.6646 35.7019 16.2062ZM18.6 8.30806C19.2508 8.30806 19.7809 8.83778 19.7809 9.48857C19.7809 10.1408 19.2508 10.6712 18.6 10.6712C17.9478 10.6712 17.4178 10.1408 17.4178 9.48857C17.4178 8.83778 17.9478 8.30806 18.6 8.30806ZM17.2778 11.6918C17.6658 11.9256 18.1149 12.0683 18.6 12.0683C19.085 12.0683 19.534 11.9255 19.9219 11.6916L24.2521 16.0766C23.915 16.2324 23.5838 16.3991 23.2656 16.5879C21.0195 17.9206 19.4391 19.9578 18.6001 22.5497C17.7603 19.9575 16.1792 17.92 13.9318 16.5873C13.6138 16.3987 13.2829 16.232 12.946 16.0764L17.2778 11.6918ZM22.4735 30.1803C23.4061 31.1128 23.4061 32.63 22.4728 33.5633C21.573 34.4651 19.9992 34.4665 19.0939 33.5626C18.9575 33.4262 18.7787 33.3579 18.6 33.3579C18.4213 33.3579 18.2426 33.4262 18.1061 33.5626C17.1749 34.4938 15.6577 34.4945 14.7252 33.5633C13.7947 32.6301 13.7947 31.1128 14.7252 30.1796C14.9974 29.9067 14.9974 29.4646 14.7245 29.1924C13.7933 28.2612 13.794 26.7454 14.7245 25.8128C15.6291 24.9082 17.203 24.9082 18.1061 25.8128C18.2371 25.9438 18.4145 26.0175 18.6 26.0175C18.7856 26.0175 18.9629 25.9438 19.0939 25.8128C19.5462 25.3605 20.1465 25.1122 20.7844 25.1122C20.7851 25.1122 20.7858 25.1122 20.7858 25.1122C21.4236 25.1122 22.0226 25.3612 22.4735 25.8128C22.9258 26.2651 23.1748 26.8654 23.1748 27.5047C23.1741 28.1418 22.9251 28.7415 22.4742 29.1917C22.3425 29.3227 22.2689 29.5008 22.2689 29.6856C22.2689 29.8712 22.3425 30.0493 22.4735 30.1803ZM2.97301 17.1579C6.74485 15.9183 10.4321 16.1356 13.2189 17.7889C15.4102 19.0883 16.8754 21.1813 17.521 23.8816C17.167 23.774 16.796 23.7151 16.4157 23.7151C15.6514 23.7151 14.9222 23.9411 14.3019 24.3602C13.7759 23.1782 13.0564 22.2165 12.1563 21.4736C10.7845 18.8098 6.73011 17.4374 2.97301 17.1579ZM3.60744 21.619C4.99571 21.1391 7.45369 20.7342 9.64076 21.5928C11.3289 22.2556 12.5321 23.5599 13.2344 25.4576C12.7329 26.2432 12.5506 27.1735 12.6845 28.0675H10.4384C9.81952 24.8519 7.42917 22.5975 3.60744 21.619ZM4.18865 31.2042V30.1407C4.18865 29.7682 4.49225 29.4646 4.86473 29.4646H13.1914C13.2361 29.5381 13.2704 29.616 13.3205 29.687C12.9059 30.2751 12.6866 30.9561 12.6459 31.6461C12.6357 31.724 12.6264 31.8019 12.6267 31.8802H4.86473C4.4984 31.8803 4.18865 31.5706 4.18865 31.2042ZM27.8602 40.5073C27.3042 41.9297 26.7781 42.1596 25.7357 42.1596H11.4649C10.4212 42.1596 9.89455 41.9297 9.33786 40.5073L6.5116 33.2774H12.9112C13.0954 33.74 13.3634 34.1764 13.7366 34.5504C15.0587 35.8711 17.1223 36.0103 18.5993 34.9673C19.2344 35.4175 19.9909 35.6604 20.7843 35.6604C21.796 35.6604 22.747 35.266 23.4612 34.5504C23.8353 34.1766 24.1038 33.7401 24.2885 33.2774H30.6881L27.8602 40.5073ZM32.4793 29.4646C32.8518 29.4646 33.1554 29.7682 33.1554 30.1407V31.2042C33.1554 31.5767 32.8518 31.8803 32.4793 31.8803H24.5733C24.5737 31.8037 24.5643 31.7276 24.5543 31.6515C24.5144 30.9598 24.2949 30.2767 23.8788 29.687C23.9292 29.6161 23.9671 29.5385 24.0122 29.4646H32.4793ZM33.5933 21.619C29.772 22.5977 27.381 24.8522 26.76 28.0675H24.5284C24.5559 27.8827 24.5718 27.695 24.5719 27.5047C24.5719 26.7669 24.3573 26.0633 23.9663 25.4577C24.6685 23.5601 25.8718 22.2557 27.5599 21.5928C29.7471 20.7342 32.205 21.1391 33.5933 21.619ZM25.0432 21.4708C24.1434 22.215 23.4245 23.1785 22.8982 24.3612C22.2794 23.9421 21.5512 23.7151 20.7871 23.7151C20.7864 23.7151 20.7857 23.7151 20.7844 23.7151C20.4039 23.7151 20.0331 23.7741 19.6791 23.8816C20.3237 21.1819 21.7881 19.0891 23.9784 17.7896C26.7645 16.1356 30.4538 15.9183 34.225 17.1579C30.4717 17.4373 26.4189 18.8087 25.0432 21.4708Z" fill="#327466"/>
<path d="M18.5997 26.9003C17.0627 26.9003 15.8123 28.1501 15.8123 29.6857C15.8123 31.2234 17.0627 32.4738 18.5997 32.4738C20.136 32.4738 21.3858 31.2234 21.3858 29.6857C21.3858 28.1501 20.136 26.9003 18.5997 26.9003ZM18.5997 31.0767C17.8329 31.0767 17.2094 30.4524 17.2094 29.6857C17.2094 28.9202 17.833 28.2974 18.5997 28.2974C19.3658 28.2974 19.9887 28.9202 19.9887 29.6857C19.9887 30.4525 19.3658 31.0767 18.5997 31.0767Z" fill="#17B997"/>
</svg>
