<svg width="45" height="38" viewBox="0 0 45 38" fill="none" xmlns="http://www.w3.org/2000/svg">
<path d="M14.6928 26.8101C12.575 26.8101 10.8517 28.5343 10.8517 30.6536C10.8517 32.7714 12.575 34.4946 14.6928 34.4946C16.812 34.4946 18.5363 32.7714 18.5363 30.6536C18.5362 28.5343 16.812 26.8101 14.6928 26.8101ZM14.6928 33.0975C13.3451 33.0975 12.2489 32.0013 12.2489 30.6536C12.2489 29.3045 13.3451 28.2072 14.6928 28.2072C16.0419 28.2072 17.1392 29.3045 17.1392 30.6536C17.1391 32.0012 16.0418 33.0975 14.6928 33.0975Z" fill="#17B997"/>
<path d="M35.0087 29.6606C33.5693 29.6606 32.398 30.832 32.398 32.2714C32.398 33.7122 33.5693 34.8845 35.0087 34.8845C36.4481 34.8845 37.6191 33.7122 37.6191 32.2714C37.6191 30.832 36.4481 29.6606 35.0087 29.6606ZM35.0087 33.4875C34.3395 33.4875 33.7951 32.942 33.7951 32.2715C33.7951 31.6022 34.3395 31.0578 35.0087 31.0578C35.6776 31.0578 36.222 31.6022 36.222 32.2715C36.222 32.942 35.6776 33.4875 35.0087 33.4875Z" fill="#17B997"/>
<path d="M41.0371 23.587V19.77C41.0371 18.1941 39.7563 16.9123 38.1818 16.9123H37.6974V14.763H38.6617C39.3718 14.763 39.9493 14.1842 39.9493 13.473V12.7461C39.9493 11.3354 38.6119 10.1879 36.9681 10.1879H24.8421C23.1984 10.1879 21.8609 11.3354 21.8609 12.7461V13.473C21.8609 14.1842 22.4384 14.763 23.1486 14.763H24.1865V16.9123H23.0916C21.5157 16.9123 20.2339 18.1942 20.2339 19.77V20.811L15.3598 20.1639L9.93695 4.82472C10.6911 4.36821 11.2013 3.54781 11.2013 2.60363C11.2013 1.16793 10.0334 0 8.59766 0H3.60032C2.16462 6.98567e-05 0.996689 1.16793 0.996689 2.60363C0.996689 4.03932 2.16462 5.20726 3.60032 5.20726H5.5373L10.7325 19.869C10.3677 19.9982 10.038 20.1967 9.76398 20.4621C9.19982 21.0086 8.90167 21.7771 8.90167 22.6847V27.3259C8.33548 28.3073 8.00632 29.4417 8.00632 30.6538C8.00632 34.3397 11.0059 37.3383 14.6929 37.3383C17.5117 37.3383 19.9235 35.5829 20.9055 33.1104H29.8926C30.2953 35.5752 32.4329 37.4641 35.0087 37.4641C37.5857 37.4641 39.7241 35.5752 40.1271 33.1104H40.6142C42.6508 33.1103 44.3078 31.5898 44.3078 29.7205V27.428C44.3078 25.9328 43.7247 24.0874 41.0371 23.587ZM23.2581 13.366V12.7462C23.2581 12.1169 23.9836 11.5851 24.8421 11.5851H36.9681C37.8267 11.5851 38.5522 12.1169 38.5522 12.7462V13.366H23.2581ZM36.3002 14.7631V16.9124H25.5837V14.7631H36.3002ZM21.631 19.77C21.631 18.9647 22.2863 18.3094 23.0916 18.3094H38.1818C38.9857 18.3094 39.6399 18.9647 39.6399 19.77V23.3873L37.2671 23.0723L37.2652 20.397C37.2649 20.0112 36.9521 19.6988 36.5667 19.6988H36.5663C36.1802 19.6991 35.8678 20.0119 35.8681 20.3977L35.8699 22.8869L31.6027 22.3204V20.3973C31.6027 20.0116 31.2899 19.6988 30.9042 19.6988C30.5184 19.6988 30.2056 20.0116 30.2056 20.3973V22.1349L26.3178 21.6188V20.4638C26.3178 20.0781 26.005 19.7653 25.6192 19.7653C25.2335 19.7653 24.9207 20.0781 24.9207 20.4638V21.4333L21.6311 20.9965V19.77H21.631ZM2.39382 2.60363C2.39382 1.93852 2.93514 1.3972 3.60032 1.3972H8.59773C9.26283 1.3972 9.80422 1.93852 9.80422 2.6037C9.80422 3.26887 9.2629 3.81019 8.59773 3.81019H3.60032C2.93514 3.81012 2.39382 3.2688 2.39382 2.60363ZM7.01924 5.20726H8.59011L13.8048 19.9576L12.1689 19.7404L7.01924 5.20726ZM14.6928 35.9411C11.7761 35.9411 9.40338 33.5691 9.40338 30.6538C9.40338 27.7371 11.7761 25.3644 14.6928 25.3644C17.6095 25.3644 19.9822 27.7371 19.9822 30.6538C19.9821 33.5691 17.6095 35.9411 14.6928 35.9411ZM35.0085 36.0669C32.9169 36.0669 31.2155 34.3642 31.2155 32.2716C31.2155 30.18 32.9169 28.4782 35.0085 28.4782C37.1011 28.4782 38.8039 30.1799 38.8039 32.2716C38.8039 34.3642 37.1011 36.0669 35.0085 36.0669ZM42.9107 29.7205C42.9107 30.8192 41.8806 31.7132 40.6141 31.7132H40.1698C39.8902 29.1129 37.6828 27.0811 35.0085 27.0811C32.3355 27.0811 30.1292 29.1128 29.8496 31.7132H21.287C21.3425 31.3673 21.3793 31.0151 21.3793 30.6537C21.3793 26.9669 18.3797 23.9672 14.6927 23.9672C13.0102 23.9672 11.4752 24.5967 10.2987 25.6262V22.6847C10.2987 22.1642 10.4498 21.7426 10.736 21.466C10.978 21.2318 11.3109 21.1099 11.6487 21.0963C11.653 21.0964 11.6571 21.0983 11.6614 21.0983C11.6704 21.0983 11.6796 21.0939 11.6887 21.0935C11.707 21.0932 11.725 21.0893 11.7433 21.0897L40.5203 24.9134C42.1736 25.1379 42.9107 25.9132 42.9107 27.428V29.7205Z" fill="#327466"/>
</svg>
