<svg width="51" height="52" viewBox="0 0 51 52" fill="none" xmlns="http://www.w3.org/2000/svg">
<path d="M29.5591 14.519C29.5591 12.4538 27.8741 10.7739 25.803 10.7739C23.731 10.7739 22.0451 12.4538 22.0451 14.519C22.0451 16.5855 23.731 18.2664 25.803 18.2664C27.8741 18.2664 29.5591 16.5855 29.5591 14.519ZM23.3175 14.519C23.3175 13.1556 24.4324 12.0463 25.803 12.0463C27.1723 12.0463 28.2866 13.1556 28.2866 14.519C28.2866 15.8837 27.1723 16.994 25.803 16.994C24.4324 16.994 23.3175 15.8837 23.3175 14.519Z" fill="#17B997"/>
<path d="M12.0854 20.373C10.6722 20.373 9.52255 21.5199 9.52255 22.9297C9.52255 24.3391 10.6722 25.486 12.0854 25.486C13.4989 25.486 14.6486 24.3392 14.6486 22.9297C14.6486 21.52 13.4989 20.373 12.0854 20.373ZM12.0854 24.2136C11.3737 24.2136 10.795 23.6377 10.795 22.9297C10.795 22.2217 11.3737 21.6454 12.0854 21.6454C12.7971 21.6454 13.3761 22.2217 13.3761 22.9297C13.3761 23.6377 12.7971 24.2136 12.0854 24.2136Z" fill="#17B997"/>
<path d="M45.0307 23.4591C44.9363 23.2394 44.8089 23.0397 44.6542 22.866C44.8048 22.6883 44.9269 22.4855 45.0161 22.2634C45.2332 21.721 45.2254 21.1267 44.9949 20.5902C44.6569 19.8036 43.9089 19.3156 43.1056 19.2671C43.0863 19.0376 43.0298 18.8096 42.9366 18.5912C42.7058 18.0518 42.2777 17.635 41.7325 17.4181C41.1879 17.2 40.5921 17.2069 40.0534 17.4371C39.8322 17.5315 39.6319 17.6585 39.4576 17.8136C39.279 17.6632 39.0755 17.5408 38.8521 17.452C38.3075 17.2351 37.7105 17.2429 37.1737 17.474C36.6347 17.7045 36.2184 18.1307 36.001 18.6744C35.9124 18.8958 35.8612 19.1261 35.8475 19.3575C35.0451 19.4252 34.3088 19.9318 33.991 20.7262C33.7739 21.2677 33.7807 21.8617 34.011 22.3981C34.1057 22.619 34.2334 22.819 34.3884 22.9933C34.2387 23.1703 34.1166 23.3726 34.0274 23.5937C33.8991 23.9132 33.8583 24.2499 33.8854 24.5832C31.2767 26.1246 30.0747 28.8799 29.2216 31.7157H26.4395V22.6891C27.3691 22.4778 28.1315 21.8234 28.4765 20.9541C29.5277 21.4083 30.7964 21.2073 31.6532 20.3533C32.1966 19.8119 32.4957 19.0918 32.4957 18.3254C32.4957 17.9263 32.4143 17.5394 32.2596 17.1838C33.3233 16.7635 34.0775 15.7271 34.0775 14.5187C34.0775 13.3103 33.3233 12.274 32.2599 11.8533C32.4143 11.4982 32.4957 11.1118 32.4957 10.7129C32.4957 9.94716 32.1966 9.22735 31.6532 8.68625C30.7958 7.83195 29.5271 7.63129 28.4765 8.08516C28.0553 7.02383 27.0158 6.27113 25.8033 6.27113C24.5912 6.27113 23.5517 7.02383 23.1305 8.08535C22.079 7.63059 20.809 7.83157 19.9513 8.68676C19.4092 9.22817 19.111 9.94767 19.111 10.7131C19.111 11.1117 19.1918 11.4981 19.3459 11.8532C18.2819 12.2735 17.5273 13.3098 17.5273 14.5188C17.5273 15.7278 18.2819 16.7642 19.3462 17.1842C19.1918 17.5399 19.111 17.9264 19.111 18.3255C19.111 19.0916 19.4093 19.8117 19.9517 20.3538C20.8097 21.2087 22.0793 21.4078 23.1306 20.9545C23.4755 21.8235 24.2378 22.4778 25.1672 22.6892V31.7157H22.3856C21.5343 28.8799 20.3333 26.1244 17.722 24.5823C17.7491 24.2497 17.7085 23.9136 17.5808 23.5947C17.492 23.3729 17.3702 23.1707 17.2202 22.9933C17.3749 22.8193 17.5019 22.6199 17.5964 22.4C17.8265 21.8629 17.8334 21.2686 17.6163 20.7268C17.2982 19.9325 16.5628 19.4258 15.7611 19.3575C15.7474 19.1267 15.6964 18.8968 15.6083 18.6756C15.3908 18.1313 14.9736 17.7041 14.4346 17.4743C13.896 17.2432 13.2998 17.2357 12.7556 17.4519C12.5322 17.541 12.3284 17.6638 12.1498 17.8147C11.5471 17.281 10.6723 17.099 9.87804 17.4174C9.33223 17.6345 8.90413 18.0508 8.67306 18.5898C8.57922 18.8085 8.5224 19.0368 8.50281 19.2673C7.7001 19.3158 6.95204 19.8038 6.61403 20.5901C6.38321 21.1275 6.37577 21.7224 6.5929 22.2651C6.68172 22.4865 6.80355 22.6885 6.95294 22.8655C6.79789 23.0398 6.67059 23.2399 6.57611 23.4605C6.34625 23.9979 6.34001 24.5925 6.55779 25.1336C6.87589 25.9279 7.61122 26.4346 8.41329 26.5029C8.42665 26.7338 8.47761 26.9633 8.56579 27.1845C8.78293 27.7291 9.20048 28.1562 9.741 28.387C10.5297 28.7231 11.4089 28.5616 12.0237 28.0437C12.4253 28.3988 12.9478 28.5986 13.4871 28.5986C13.7568 28.5986 14.0308 28.5485 14.2958 28.4429C14.8412 28.2264 15.269 27.8105 15.5002 27.2721C15.5946 27.0528 15.6515 26.8235 15.6713 26.5924C16.2761 26.5566 16.8496 26.2702 17.2405 25.7946C19.1645 27.0087 20.2145 29.0494 21.0502 31.7156H16.4946C15.3259 31.7156 14.375 32.6643 14.375 33.8302C14.375 34.8022 15.0407 35.6144 15.9388 35.8596L17.8919 44.5224C18.0598 45.2365 18.6801 45.7162 19.4351 45.7162H32.1742C32.9377 45.7162 33.5584 45.2337 33.719 44.5149L35.6415 35.8686C36.5534 35.6333 37.2322 34.8128 37.2322 33.8304C37.2322 32.6645 36.2822 31.7158 35.1148 31.7158H30.5576C31.3951 29.0496 32.4457 27.0089 34.3681 25.7953C34.7597 26.2704 35.3334 26.5564 35.938 26.5923C35.9576 26.8237 36.0148 27.0526 36.1089 27.2722C36.3397 27.8103 36.7666 28.2259 37.3114 28.4431C37.577 28.5487 37.8513 28.5987 38.1213 28.5987C38.6608 28.5987 39.183 28.3989 39.5841 28.0445C40.1982 28.562 41.078 28.7223 41.8683 28.3871C42.4073 28.157 42.8241 27.731 43.0413 27.188C43.1301 26.9659 43.1814 26.7351 43.1951 26.503C43.9972 26.435 44.7331 25.9283 45.0512 25.1337C45.2686 24.5911 45.2612 23.9962 45.0307 23.4591ZM24.2026 19.9031C24.2026 19.6459 24.0478 19.4141 23.8102 19.3157C23.7316 19.2827 23.6487 19.2669 23.5664 19.2669C23.4014 19.2669 23.239 19.3312 23.1171 19.4523C22.4921 20.0749 21.4744 20.0755 20.8506 19.453C20.5493 19.152 20.3834 18.7515 20.3834 18.3256C20.3834 17.8997 20.5493 17.4993 20.8506 17.1982C21.0326 17.0162 21.087 16.7425 20.9886 16.5049C20.8901 16.267 20.658 16.1119 20.4008 16.1119C19.518 16.1119 18.7997 15.3974 18.7997 14.5189C18.7997 13.6404 19.518 12.9256 20.4008 12.9256C20.6584 12.9256 20.8901 12.7705 20.9886 12.5326C21.087 12.295 21.0326 12.0213 20.8503 11.8392C20.5493 11.5383 20.3834 11.1384 20.3834 10.7132C20.3834 10.2879 20.5493 9.88805 20.85 9.58738C21.475 8.96485 22.4921 8.96485 23.1171 9.58738C23.3001 9.76972 23.5732 9.82348 23.8102 9.72436C24.0478 9.62587 24.2026 9.39416 24.2026 9.13694C24.2026 8.25834 24.9208 7.54355 25.8033 7.54355C26.6862 7.54355 27.4044 8.25834 27.4044 9.13688C27.4044 9.3941 27.5592 9.62587 27.7968 9.72429C28.0344 9.82341 28.3075 9.76965 28.4899 9.58732C29.1149 8.96542 30.131 8.96567 30.7548 9.58763C31.0568 9.88837 31.2233 10.2882 31.2233 10.7131C31.2233 11.138 31.0568 11.5379 30.7548 11.8385C30.5725 12.0202 30.5178 12.2943 30.6159 12.5322C30.7144 12.7701 30.9465 12.9255 31.204 12.9255C32.0869 12.9255 32.8051 13.6403 32.8051 14.5188C32.8051 15.3974 32.0869 16.1118 31.204 16.1118C30.9465 16.1118 30.7144 16.2671 30.6159 16.5051C30.5178 16.7431 30.5724 17.0168 30.7548 17.1985C31.0568 17.4998 31.2233 17.8999 31.2233 18.3255C31.2233 18.7512 31.0568 19.1513 30.7548 19.4523C30.131 20.0748 29.1149 20.0754 28.4899 19.4523C28.3075 19.2708 28.0335 19.2171 27.7968 19.3156C27.5592 19.4141 27.4044 19.6458 27.4044 19.903C27.4044 20.7816 26.6862 21.496 25.8033 21.496C24.9208 21.4961 24.2026 20.7816 24.2026 19.9031ZM15.1813 25.249C14.9442 25.1471 14.67 25.1981 14.486 25.3782C14.3018 25.5581 14.244 25.8312 14.3397 26.0701C14.4304 26.2971 14.4273 26.5457 14.331 26.77C14.2341 26.9955 14.0548 27.1697 13.8253 27.2611C13.3534 27.4494 12.8157 27.2192 12.6256 26.7488C12.5293 26.5109 12.2994 26.354 12.0425 26.3512C12.0403 26.3512 12.0378 26.3512 12.0357 26.3512C11.7816 26.3512 11.5517 26.5025 11.4511 26.7364C11.251 27.2009 10.7074 27.4164 10.2405 27.2167C10.0134 27.1201 9.83853 26.9412 9.74749 26.7131C9.6574 26.4873 9.66116 26.24 9.75773 26.0167C9.85991 25.7803 9.80958 25.5057 9.63036 25.3211C9.45019 25.1357 9.17617 25.0769 8.93887 25.1729C8.46635 25.3609 7.92767 25.1317 7.73853 24.6595C7.64749 24.4333 7.64997 24.1854 7.74597 23.9614C7.84229 23.7359 8.02183 23.5616 8.25106 23.4703C8.49059 23.3749 8.64901 23.1447 8.65213 22.8868C8.65524 22.6293 8.50268 22.3951 8.26569 22.2938C8.03952 22.1975 7.86494 22.0195 7.77422 21.7924C7.6835 21.5657 7.68661 21.3171 7.78294 21.0925C7.98328 20.6272 8.52787 20.4116 8.99383 20.6101C9.23146 20.7108 9.50452 20.6598 9.68877 20.4796C9.87238 20.2994 9.92983 20.0267 9.83414 19.7878C9.74342 19.5623 9.74653 19.315 9.84254 19.0913C9.93918 18.8658 10.119 18.6912 10.3502 18.5993C10.8217 18.4095 11.3582 18.64 11.5483 19.1113C11.6444 19.3495 11.8742 19.5067 12.1311 19.5095C12.3691 19.5058 12.621 19.3604 12.7229 19.1243C12.8196 18.8994 12.9985 18.7251 13.2268 18.6341C13.4555 18.5437 13.7058 18.5471 13.9335 18.6443C14.1606 18.741 14.3355 18.9199 14.4265 19.1476C14.5166 19.3731 14.5128 19.6207 14.4163 19.844C14.3141 20.0805 14.3644 20.355 14.5436 20.5396C14.7232 20.7251 14.9965 20.7822 15.2351 20.6878C15.7095 20.5005 16.2463 20.7291 16.4348 21.2004C16.5259 21.4266 16.5231 21.6744 16.4267 21.8984C16.3304 22.1236 16.1515 22.2973 15.9229 22.3883C15.6836 22.4834 15.5252 22.7135 15.5218 22.9708C15.5184 23.2283 15.6703 23.4625 15.907 23.5641C16.1335 23.6613 16.3084 23.8403 16.3997 24.0677C16.4904 24.2947 16.4873 24.5435 16.391 24.7682C16.1909 25.2338 15.6495 25.4513 15.1813 25.249ZM32.4771 44.2381C32.4599 44.3149 32.3978 44.4437 32.1742 44.4437H19.4351C19.2244 44.4437 19.153 44.3279 19.1315 44.2369L17.2618 35.9428H34.3216L32.4771 44.2381ZM35.9597 33.8304C35.9597 34.2936 35.5807 34.6704 35.1148 34.6704H16.4944C16.0272 34.6704 15.6473 34.2936 15.6473 33.8304C15.6473 33.366 16.0273 32.9883 16.4944 32.9883H35.1148C35.5807 32.9882 35.9597 33.366 35.9597 33.8304ZM43.8701 24.661C43.6815 25.1313 43.1432 25.3606 42.6704 25.1729C42.4328 25.0779 42.1591 25.136 41.9796 25.3205C41.8003 25.5047 41.7497 25.779 41.851 26.0151C41.9476 26.24 41.951 26.4885 41.8603 26.715C41.7692 26.9421 41.5947 27.1204 41.3688 27.2167C40.9019 27.4177 40.3561 27.2015 40.156 26.7364C40.0544 26.5003 39.8308 26.3438 39.5635 26.3512C39.3066 26.3543 39.0768 26.5118 38.9808 26.7504C38.7925 27.2201 38.2548 27.4484 37.7816 27.261C37.5536 27.17 37.3747 26.9957 37.2781 26.7705C37.1818 26.5459 37.1786 26.2971 37.2694 26.07C37.3651 25.8311 37.3073 25.558 37.123 25.3782C37.0019 25.2598 36.8416 25.1974 36.6788 25.1974C36.594 25.1974 36.5086 25.2142 36.4279 25.249C35.9609 25.4499 35.4173 25.2334 35.2163 24.7684C35.1197 24.5438 35.1169 24.2952 35.2082 24.0685C35.2999 23.8405 35.4751 23.6616 35.7022 23.564C35.9386 23.4624 36.0908 23.2282 36.0874 22.9706C36.084 22.7134 35.9256 22.4832 35.6864 22.3882C35.4571 22.2968 35.2772 22.1222 35.1806 21.8967C35.0846 21.673 35.0815 21.4258 35.1726 21.1996C35.3605 20.7293 35.8979 20.5007 36.372 20.6877C36.6099 20.7833 36.883 20.7249 37.0629 20.5401C37.2421 20.3559 37.2927 20.0816 37.1914 19.8455C37.0951 19.6212 37.092 19.3733 37.1824 19.1469C37.2734 18.9192 37.448 18.7405 37.6751 18.6436C37.9013 18.5461 38.1522 18.543 38.3818 18.6344C38.6104 18.7254 38.7897 18.8993 38.8863 19.1242C38.9882 19.361 39.2271 19.5268 39.479 19.5095C39.7362 19.506 39.9661 19.3482 40.0618 19.1097C40.1525 18.8823 40.3271 18.7036 40.5529 18.6073C40.7797 18.5104 41.0301 18.5076 41.2609 18.5999C41.4904 18.6912 41.67 18.8658 41.7663 19.0916C41.862 19.3147 41.8645 19.5616 41.7734 19.7862C41.6771 20.0251 41.734 20.2985 41.9179 20.479C42.1012 20.6588 42.3755 20.7104 42.6132 20.6101C43.0807 20.4094 43.6252 20.6263 43.826 21.0925C43.922 21.3166 43.9254 21.5641 43.8347 21.7906C43.7433 22.0183 43.5684 22.1973 43.3414 22.2938C43.1043 22.3951 42.9518 22.6293 42.9549 22.8868C42.958 23.1447 43.1165 23.3749 43.356 23.4703C43.5853 23.5613 43.7645 23.7359 43.8614 23.9614C43.9577 24.1857 43.9608 24.4342 43.8701 24.661Z" fill="#327466"/>
<path d="M39.5211 20.3731C38.1079 20.3731 36.9583 21.52 36.9583 22.9298C36.9583 24.3392 38.1079 25.4861 39.5211 25.4861C40.9346 25.4861 42.0843 24.3392 42.0843 22.9298C42.0843 21.5201 40.9346 20.3731 39.5211 20.3731ZM39.5211 24.2137C38.8094 24.2137 38.2307 23.6377 38.2307 22.9298C38.2307 22.2218 38.8094 21.6455 39.5211 21.6455C40.2328 21.6455 40.8118 22.2218 40.8118 22.9298C40.8118 23.6377 40.2328 24.2137 39.5211 24.2137Z" fill="#17B997"/>
</svg>
