<svg width="32" height="33" viewBox="0 0 32 33" fill="none" xmlns="http://www.w3.org/2000/svg">
<g clip-path="url(#clip0_1_167)">
<path fill-rule="evenodd" clip-rule="evenodd" d="M3.02619 16.7009C3.02619 9.65349 8.73923 3.94045 15.7866 3.94045C22.8341 3.94045 28.547 9.65349 28.547 16.7009C28.547 23.7484 22.8341 29.4613 15.7866 29.4613C8.73923 29.4613 3.02619 23.7484 3.02619 16.7009ZM15.7866 0.995743C7.1129 0.995743 0.0814819 8.02716 0.0814819 16.7009C0.0814819 25.3746 7.1129 32.406 15.7866 32.406C24.4604 32.406 31.4917 25.3746 31.4917 16.7009C31.4917 8.02716 24.4604 0.995743 15.7866 0.995743ZM12.6036 11.2574C12.2765 11.0612 11.8603 11.2968 11.8603 11.6783V21.7236C11.8603 22.105 12.2765 22.3406 12.6036 22.1443L20.9746 17.1217C21.2922 16.9311 21.2922 16.4707 20.9746 16.28L12.6036 11.2574Z" fill="#17B997"/>
</g>
<defs>
<clipPath id="clip0_1_167">
<rect width="31.4103" height="31.4103" fill="white" transform="translate(0.0814819 0.995743)"/>
</clipPath>
</defs>
</svg>
